<?xml version="1.0" standalone="no"?>
<!DOCTYPE svg PUBLIC "-//W3C//DTD SVG 20010904//EN"
 "http://www.w3.org/TR/2001/REC-SVG-20010904/DTD/svg10.dtd">
<svg version="1.0" xmlns="http://www.w3.org/2000/svg"
 width="188.000000pt" height="409.000000pt" viewBox="0 0 188.000000 409.000000"
 preserveAspectRatio="xMidYMid meet">

<g transform="translate(0.000000,409.000000) scale(0.100000,-0.100000)"
fill="#000000" stroke="none">
<path d="M510 3032 c-65 -32 -70 -56 -70 -323 0 -305 -9 -289 161 -289 108 0
121 2 140 21 20 20 21 28 15 113 -4 52 -3 87 2 81 4 -5 21 -41 37 -80 87 -212
528 -1020 572 -1047 37 -24 259 -26 302 -3 62 32 61 15 61 762 0 758 3 729
-70 766 -49 25 -168 20 -207 -9 -43 -32 -52 -72 -52 -249 -1 -204 17 -692 28
-767 4 -32 5 -58 1 -58 -3 0 -21 37 -39 83 -19 45 -64 145 -102 222 -82 168
-396 728 -427 760 -28 29 -61 35 -201 35 -90 0 -124 -4 -151 -18z"/>
<path d="M472 2254 c-22 -15 -22 -15 -22 -354 l0 -340 29 -32 c27 -30 34 -33
105 -36 86 -5 126 7 156 46 19 23 20 42 20 363 0 404 15 369 -155 369 -84 0
-116 -4 -133 -16z"/>
</g>
</svg>
